# xmcd
#
# Track frame offsets: 
#        150
#        44523
#        60476
#        94751
#
# Disc length: 3037 seconds
#
# Revision: 0
# Processed by: cddbd v1.5.1PL2 Copyright (c) Steve Scherf et al.
# Submitted via: ExactAudioCopy v0.95b2
#
DISCID=2d0bdb04
DTITLE=Fat Freddy's Drop - Wandering Eye
DYEAR=2005
DGENRE=Soul
TTITLE0=Wandering Eye
TTITLE1=Wandering Eye (The Italian Reprise)
TTITLE2=Wandering Eye (Radio Edit)
TTITLE3=Wandering Eye (Video)
EXTD=
EXTT0=
EXTT1=
EXTT2=
EXTT3=
PLAYORDER=
